<?xml version="1.0" encoding="UTF-8" standalone="no"?>
<!DOCTYPE svg PUBLIC "-//W3C//DTD SVG 1.1//EN" "http://www.w3.org/Graphics/SVG/1.1/DTD/svg11.dtd">
<svg width="100%" height="100%" viewBox="0 0 512 512" version="1.1" xmlns="http://www.w3.org/2000/svg" xmlns:xlink="http://www.w3.org/1999/xlink" xml:space="preserve" xmlns:serif="http://www.serif.com/" style="fill-rule:evenodd;clip-rule:evenodd;stroke-linejoin:round;stroke-miterlimit:2;">
    <g id="Background" transform="matrix(1,0,0,1,10,100)">
        <path d="M338.018,66.97C372.091,104.42 360.037,118.856 390.461,134.577C418.198,148.909 498.389,133.891 489.537,159.513C484.478,174.158 375.157,170.548 372.865,173.773C371.799,175.272 368.373,227.465 317.763,261.882C243.219,312.575 135.813,272.711 119.677,175.467C119.087,171.91 117.186,173.513 64.521,171.002C3.547,168.094 2.794,163.611 2.195,158.562C0.971,148.259 4.29,145.201 46.479,142.24C87.818,139.338 110.752,144.139 129.678,102.583C161.51,32.687 261.541,-6.285 338.018,66.97L87.646,156.241C124.865,159.119 447.223,159.473 400.532,154.404C385.085,152.728 361.138,139.163 349.968,114.284C313.11,32.188 232.448,37.361 197.708,54.925C136.2,86.023 151.679,127.078 110.285,148.089C91.795,157.474 87.646,152.01 87.646,156.241L338.018,66.97L320.061,240.007C324.352,235.813 334.455,227.588 345.021,208.248C352.058,195.368 356.247,177.287 356.147,175.465C355.982,172.449 348.619,173.558 342.514,173.757C337.96,173.906 339.832,176.107 338.677,180.549C318.727,257.277 218.339,276.555 171.08,215.838C155.982,196.439 154.32,183.379 152.148,175.598C151.813,174.398 151.652,173.426 137.494,173.437C137.285,173.437 135.573,173.438 135.846,175.465C145.309,245.798 241.317,305.593 320.061,240.007L338.018,66.97Z" style="fill-opacity:1;"/>
        <path d="M190.14,78.005C236.253,46.015 287.673,60.163 316.317,90.669C326.04,101.025 347.894,134.244 334.346,141.151C329.835,143.451 180.151,142.42 161.484,141.918C154.989,141.744 151.93,136.759 153.215,131.427C160.701,100.363 186.002,81.147 190.14,78.005Z" style="fill-opacity:1;"/>
        <path d="M422.009,109.628C421.419,107.205 420.564,104.852 419.974,102.43C419.494,100.459 422.596,97.228 424.145,102.603C425.529,107.405 430.186,121.415 426.503,121.551C424.037,121.642 422.519,111.802 422.009,109.628Z" style="fill-opacity:1;"/>
        <path d="M423.002,198.396C424.582,192.025 423.99,191.693 425.568,190.622C431.109,186.861 424.813,210.988 422.363,212.125C417.751,214.266 422.445,200.433 423.002,198.396Z" style="fill-opacity:1;"/>
        <path d="M68.999,198.396C69.506,200.254 74.291,214.453 69.626,212.176C66.836,210.814 60.835,184.732 66.87,191.096C67.626,191.893 67.385,191.958 68.999,198.396Z" style="fill-opacity:1;"/>
        <path d="M66.986,120.921C63.971,122.667 63.244,120.979 63.985,117.598C65.902,108.845 68.217,97.41 71.445,100.553C72.877,101.947 67.247,120.403 66.986,120.921Z" style="fill-opacity:1;"/>
        <path d="M247.491,306.008C249.492,305.975 251.493,305.882 253.494,305.849C257.351,305.785 257.077,309.664 253.528,309.819C236.399,310.566 236.09,308.838 236.291,307.46C236.531,305.818 246.588,305.992 247.491,306.008Z" style="fill-opacity:1;"/>
        <path d="M351.021,263.001C357.85,255.745 357.944,255.8 358.547,255.636C366.713,253.419 349.519,273.388 346.504,269.497C345.511,268.215 350.562,263.436 351.021,263.001Z"/>
        <path d="M140.969,48.989C138.238,51.71 133.685,58.08 131.483,55.513C129.41,53.096 146.56,36.284 145.894,43.543C145.81,44.464 141.398,48.588 140.969,48.989Z"/>
        <path d="M353.011,50.97C347.788,46.077 346.124,44.511 345.752,43.428C342.955,35.29 359.843,50.773 360.347,53.537C361.527,60 353.438,51.423 353.011,50.97Z"/>
        <path d="M178.018,22.062C173.737,24.54 160.843,33.741 161.232,28.48C161.366,26.659 180.895,13.687 178.018,22.062Z" style="fill-opacity:1;"/>
        <path d="M392.995,201.651C390.509,207.736 388.808,202.28 388.952,201.564C392.296,184.863 394.175,185.088 395.497,185.507C398.131,186.341 394.37,197.062 392.995,201.651Z" style="fill-opacity:1;"/>
        <path d="M140.968,263.012C141.466,263.474 148.902,270.379 144.527,270.726C142.225,270.909 125.924,254.998 133.436,255.974C134.369,256.096 140.399,262.415 140.968,263.012Z"/>
        <path d="M99.006,125.216C90.423,131.21 100.807,100.454 103.032,108.673C103.327,109.761 103.057,109.777 99.006,125.216Z" style="fill-opacity:1;"/>
        <path d="M329.907,284.959C328.768,285.707 310.968,297.39 313.848,290.615C314.687,288.64 336.438,275.804 329.907,284.959Z"/>
        <path d="M112.08,223.927C116.343,231.367 123.199,240.822 118.496,240.609C116.374,240.513 103.508,220.407 112.08,223.927Z" style="fill-opacity:1;"/>
        <path d="M166.798,288.008C161.987,284.54 161.527,284.818 161.499,283.5C161.39,278.401 178.918,289.683 178.845,291.524C178.669,295.949 167.644,288.481 166.798,288.008Z"/>
        <path d="M374.92,72.103C381.474,80.943 385.442,90.555 380.589,88.266C378.777,87.412 365.96,65.996 374.92,72.103Z" style="fill-opacity:1;"/>
        <path d="M275.979,5.958C279.424,4.66 296.1,8.927 294.154,12.274C292.654,14.855 291.968,12.996 284.383,10.973C282.935,10.587 274.737,10.309 275.979,5.958Z" style="fill-opacity:1;"/>
        <path d="M280.606,305.992C273.32,307.241 277.348,302.95 277.658,302.792C281.383,300.88 291.325,298.938 292.536,298.702C295.047,298.211 297.225,301.283 292.589,302.772C291.643,303.075 291.701,303.01 280.606,305.992Z" style="fill-opacity:1;"/>
        <path d="M326.791,25.034C333.07,29.115 328.013,30.159 327.634,30.018C327.441,29.946 313.714,22.273 313.35,21.604C312.285,19.642 313.858,18.769 314.53,18.713C316.069,18.585 325.845,24.465 326.791,25.034Z" style="fill-opacity:1;"/>
        <path d="M378.018,235.206C377.727,235.674 372.763,243.66 372.032,238.603C371.765,236.756 382.946,216.541 383.373,224.511C383.462,226.178 378.272,234.752 378.018,235.206Z"/>
        <path d="M198.033,301.977C197.349,300.682 196.649,300.658 197.591,299.564C199.344,297.528 215.472,303.247 215.613,303.393C220.536,308.518 203.679,305.14 198.033,301.977Z" style="fill-opacity:1;"/>
        <path d="M99.952,204.119C99.502,202.765 94.773,188.521 95.863,186.757C98.705,182.161 101.795,196.853 103.086,201.594C104.343,206.209 100.243,204.257 99.952,204.119Z" style="fill-opacity:1;"/>
        <path d="M113.977,76.793C116.748,72.333 117.224,72.081 117.66,71.851C124.404,68.29 112.965,88.954 110.484,88.917C105.954,88.85 113.407,77.816 113.977,76.793Z"/>
        <path d="M214.821,8.976C214.538,9.103 199.415,13.871 197.817,13.015C192.641,10.246 209.305,6.444 210.423,6.188C210.829,6.096 218.142,4.428 214.821,8.976Z" style="fill-opacity:1;"/>
        <path d="M396.002,125.096C392.433,126.718 392.517,123.262 389.231,111.582C387.444,105.233 391.968,107.077 392.438,108.528C396.416,120.795 396.433,123.217 396.002,125.096Z" style="fill-opacity:1;"/>
        <path d="M243.509,1.999C253.019,2.146 253.155,1.605 254.443,2.591C260.372,7.133 241.206,6.106 239.497,6.135C239.16,6.141 235.373,6.206 236.286,3.401C236.956,1.34 237.733,2.394 243.509,1.999Z" style="fill-opacity:1;"/>
        <path d="M82.917,245.094C82.55,244.426 78.753,237.51 79.111,236.359C80.991,230.309 91.057,248.717 82.917,245.094Z" style="fill-opacity:1;"/>
        <path d="M409.084,66.904C414.046,75.949 412.375,76.723 411.564,76.831C408.709,77.21 402.01,63.738 409.084,66.904Z"/>
        <path d="M409.084,245.097C400.775,248.789 411.308,230.157 412.869,236.364C413.185,237.62 409.45,244.429 409.084,245.097Z"/>
        <path d="M84.019,73.253C81.68,76.536 82.064,78.455 79.748,77.035C76.175,74.843 85.69,61.852 85.968,68.472C86.03,69.936 85.677,69.8 84.019,73.253Z" style="fill-opacity:1;"/>
    </g>
</svg>
