<?xml version="1.0" encoding="UTF-8" standalone="no"?>
<!DOCTYPE svg PUBLIC "-//W3C//DTD SVG 1.1//EN" "http://www.w3.org/Graphics/SVG/1.1/DTD/svg11.dtd">
<svg width="100%" height="100%" viewBox="0 0 510 510" version="1.1" xmlns="http://www.w3.org/2000/svg" xmlns:xlink="http://www.w3.org/1999/xlink" xml:space="preserve" xmlns:serif="http://www.serif.com/" style="fill-rule:evenodd;clip-rule:evenodd;stroke-linejoin:round;stroke-miterlimit:2;">
    <g transform="matrix(1,0,0,1,17.69844,138.721185)">
        <path d="M52.913,122.465C55.108,135.748 60.2,166.429 100.487,177.547C143.7,189.472 166.897,152.052 204.112,120.082C210.414,114.668 204.818,113.89 198.694,108.285C146.184,60.226 145.342,57.467 125.519,54.373C121.084,53.681 93.799,49.422 71.911,70.918C49.406,93.02 52.904,119.056 52.913,122.465M279.928,92.456C281.595,113.24 262.934,113.175 268.704,118.283C323.887,167.138 330.381,183.643 369.529,178.702C421.66,172.122 445.281,96.438 392.383,62.701C375.011,51.621 343.751,48.817 323.871,65.952C321.973,67.587 316.673,74.745 304.527,73.313C293.965,72.067 266.522,47.963 316.658,22.825C374.613,-6.235 465.783,32.062 462.174,123.485C459.925,180.451 401.292,235.824 329.46,215.62C288.847,204.198 241.621,139.782 235.931,144.998C184.061,192.538 165.506,220.738 111.496,219.728C37.856,218.351 -21.978,128.645 34.933,51.824C53.946,26.158 122.077,-16.33 186.098,41.957C196.108,51.07 235.773,88.725 237.51,88.581C238.176,88.526 259.624,62.763 276.053,82.877C278.907,86.37 279.791,91.64 279.928,92.456"/>
        <path d="M144.613,107.104C156.068,111.294 152.915,126.676 140.505,126.861C128.593,127.039 126.762,125.354 126.742,128.52C126.728,130.569 130.165,151.881 116.498,151.741C100.905,151.581 109.107,126.868 104.468,126.819C103.357,126.807 79.874,130.053 81.546,115.505C83.23,100.857 106.317,109.647 106.351,104.488C106.375,100.935 103.115,81.606 116.5,81.594C121.027,81.591 126.421,85.115 126.701,90.48C127.169,99.452 125.774,106.352 128.513,106.409C136.653,106.579 136.613,105.697 144.613,107.104Z"/>
        <path d="M381.562,107.051C393.759,109.206 394.422,126.789 378.493,127.08C332.468,127.919 331.299,126.334 328.939,123.133C324.593,117.239 326.619,106.86 338.503,106.778C375.627,106.523 378.131,106.746 381.562,107.051Z"/>
    </g>
</svg>
